<svg width="847" height="843" viewBox="0 0 847 843" fill="none" xmlns="http://www.w3.org/2000/svg">
<path d="M810.847 516.204C808.827 525.637 805.659 535.067 799.854 543.026C791.929 553.83 777.793 563.977 766.409 566.784C770.193 560.776 772.866 553.503 773.819 545.509C774.954 535.978 773.391 528.016 769.574 521.885C765.981 515.812 760.796 511.769 755.024 509.841C749.274 507.887 742.918 508.043 736.946 510.265C733.938 511.377 731.041 513.039 728.3 515.228C725.494 517.382 722.619 520.021 720.106 523.255C716.321 528.084 713.584 533.236 711.72 538.65C710.024 544.138 708.194 549.451 707.677 555.063C706.431 566.226 708.128 577.911 711.427 587.533C700.884 589.129 690.736 594.023 681.573 600.556C676.905 603.78 672.692 607.633 669.135 612.101C667.379 614.323 665.777 616.704 664.339 619.285C662.778 621.733 661.34 624.271 660.13 627.045C653.607 641.93 657.163 656.158 666.234 664.184C675.272 672.244 690.511 673.582 706.307 662.514C713.221 657.984 717.525 651.361 720.792 644.962C723.631 654.134 723.073 667.607 719.647 677.363C716.39 687.414 711.003 696.811 704.085 704.414C696.91 711.723 688.456 717.561 679.844 721.447C671.357 725.555 661.859 726.668 653.639 726.341C645.286 725.855 637.751 723.342 631.647 718.807C622.673 712.115 620.125 702.166 620.585 690.937C620.944 679.52 624.863 667.441 628.028 653.9C629.757 647.442 631.52 640.818 633.249 634.263C634.909 627.763 635.954 620.979 636.965 614.782C637.876 608.517 638.593 602.703 638.629 597.224C638.47 591.576 637.876 586.489 636.707 582.087C632.948 567.988 626.39 556.342 617.319 546.194C608.446 536.177 597.871 528.15 586.587 521.461C563.906 508.144 538.882 499.958 516.854 492.38C523.511 484.654 527.622 475.348 532.125 466.443C548.896 481.322 569.32 499.331 592.167 512.353C615.005 525.275 640.815 532.813 669.729 525.569C678.507 523.089 688.096 517.115 698.313 509.381C708.001 501.521 717.627 491.695 727.481 482.233C736.556 472.675 745.885 463.438 755.575 457.404C765.038 451.368 774.57 448.435 785.269 452.51C798.226 457.274 807.297 470.881 810.948 488.439C811.8 492.808 812.453 497.445 812.485 502.104C812.352 506.741 811.8 511.502 810.847 516.204ZM569.196 691.981C564.627 690.546 559.923 689.277 555.194 688.099C550.493 686.954 545.764 685.945 541.036 685.032L534.021 683.697L526.904 682.059C518.776 680.238 511.241 678.31 504.324 676.029C497.309 673.448 490.75 670.09 484.978 666.338C479.163 662.488 474.076 658.278 469.641 652.63C465.197 646.949 461.481 640.394 458.547 632.726C451.95 615.591 451.039 598.167 451.924 582.055C452.994 566.36 455.415 550.27 458.087 537.606C458.381 536.304 458.446 534.966 458.414 533.628C462.365 531.801 466.568 530.725 470.519 528.959C472.448 527.95 474.403 526.971 476.357 526.088L479.365 524.782L482.103 522.988C485.787 520.641 489.738 518.753 493.03 515.78C494.76 514.441 496.587 513.205 498.386 511.93C499.922 510.366 501.518 508.862 503.179 507.394C504.357 508.111 505.56 508.761 506.905 509.253C513.555 511.668 520.052 513.757 527.07 516.53C534.086 519.271 541.421 522.469 548.763 526.221C563.322 533.664 577.673 542.96 589.394 557.412C599.444 569.917 603.911 582.772 604.991 596.963C605.709 604.239 604.73 610.965 603.487 618.398C602.083 625.615 600.521 633.737 597.682 641.144C594.514 650.016 591.606 659.547 588.934 668.912C586.063 677.951 583.68 687.188 582.342 696.26L582.31 696.227C578.068 694.589 573.764 693.32 569.196 691.981ZM574.025 771.048C570.925 778.122 565.603 784.521 558.879 790.427C552.097 796.075 544.035 801.655 534.797 804.327C525.635 807.3 515.745 808.729 506.053 808.112C492.806 806.84 476.882 799.139 468.79 790.753C475.874 791.043 483.542 789.901 490.916 786.834C499.788 783.411 505.727 777.146 509.251 771.204C512.71 765.073 513.656 758.609 512.452 752.671C509.973 740.666 499.495 731.135 483.408 729.213C477.342 728.27 471.495 728.361 465.856 729.372C460.211 730.358 454.821 732.381 449.668 734.3C439.394 738.545 430.156 745.593 423.496 753.914C416.84 745.593 407.609 738.545 397.327 734.336C392.139 732.414 386.762 730.358 381.146 729.372C375.5 728.393 369.66 728.27 363.62 729.213C347.442 731.102 337 740.666 334.553 752.703C333.376 758.642 334.318 765.142 337.81 771.24C341.334 777.179 347.272 783.411 356.086 786.834C363.588 789.967 371.422 791.079 378.597 790.684C372.075 797.703 360.23 803.316 349.922 805.897C339.448 808.605 328.804 807.717 318.656 805.662C313.634 804.52 308.739 803.058 304.172 800.969C299.668 798.747 295.459 796.14 291.642 793.233C284.006 787.461 277.907 780.638 274.083 773.328C270.399 765.693 268.869 757.764 269.78 750.132C271.117 738.936 278.459 731.853 288.316 726.866C290.822 725.588 293.436 724.511 296.242 723.434C299.085 722.298 302.051 721.185 305.081 720.21C311.219 718.187 317.677 716.425 324.203 714.787C327.502 713.909 330.735 713.26 334.025 712.281L343.951 709.276C350.441 707.253 356.738 705.233 362.576 703.109C374.355 698.407 384.379 692.57 390.805 686.402C395.898 681.54 400.202 675.794 403.758 669.797C407.282 663.858 410.023 657.685 412.144 651.42C416.389 638.831 418.018 625.707 418.152 612.56C418.275 599.41 416.909 586.231 414.986 573.633C413.09 560.845 410.483 549.451 408.294 537.639C410.709 538.324 413.29 538.265 415.864 538.324C418.409 538.392 420.957 538.592 423.496 538.849C426.045 538.592 428.593 538.392 431.132 538.324C433.713 538.265 436.287 538.324 438.708 537.639C436.519 549.451 433.938 560.845 432.019 573.633C430.123 586.231 428.753 599.41 428.85 612.56C428.978 625.675 430.649 638.798 434.884 651.387C436.972 657.684 439.752 663.825 443.27 669.797C446.794 675.794 451.104 681.54 456.192 686.402C462.75 692.703 472.807 698.642 484.518 703.268C490.322 705.422 496.555 707.419 503.022 709.41C509.512 711.462 516.136 713.417 522.535 714.855C535.391 717.952 548.312 722.128 558.128 726.866C568.018 731.853 575.461 738.936 577.223 750.132C578.267 756.788 577.121 763.931 574.025 771.048ZM391.261 499.272C389.567 498.613 388.03 497.51 386.366 496.825C384.673 496.107 382.943 495.513 381.505 494.277C379.968 493.268 378.372 492.348 376.711 491.538C375.24 490.426 373.869 489.124 372.332 488.113C371.582 487.555 370.805 487.069 370.019 486.576C369.301 485.959 368.717 485.205 368.032 484.588C366.687 483.277 365.284 482.072 363.79 480.963C362.645 479.433 361.44 478.03 360.129 476.685C359.512 476.033 358.758 475.417 358.174 474.731C357.681 473.912 357.162 473.135 356.637 472.385C355.593 470.848 354.291 469.51 353.215 468.006C352.369 466.345 351.485 464.749 350.441 463.212C349.237 461.774 348.61 460.044 347.892 458.383C347.207 456.687 346.104 455.186 345.445 453.489C344.701 449.896 342.512 446.832 342.185 443.113C339.641 436.264 339.93 428.755 339.02 421.221C339.93 413.71 339.641 406.175 342.185 399.326C342.512 395.633 344.701 392.569 345.445 388.976C346.104 387.279 347.207 385.785 347.892 384.082C348.61 382.418 349.237 380.655 350.441 379.219C351.485 377.689 352.369 376.12 353.215 374.459C354.291 372.954 355.593 371.584 356.637 370.057C357.162 369.303 357.681 368.52 358.174 367.733C358.758 367.049 359.512 366.432 360.129 365.747C361.44 364.409 362.645 363.006 363.79 361.502C365.284 360.366 366.687 359.156 368.032 357.85C368.717 357.233 369.301 356.516 370.019 355.889C370.805 355.403 371.582 354.878 372.332 354.359C373.869 353.315 375.24 352.013 376.711 350.936C378.372 350.117 379.968 349.207 381.505 348.163C382.943 346.952 384.673 346.332 386.366 345.614C388.03 344.962 389.567 343.852 391.261 343.166C394.821 342.449 397.921 340.227 401.605 339.9C408.453 337.362 415.962 337.652 423.496 336.768C431.041 337.652 438.542 337.362 445.391 339.9C449.085 340.227 452.181 342.449 455.741 343.166C457.438 343.852 458.965 344.962 460.636 345.614C462.332 346.332 464.062 346.952 465.498 348.163C467.028 349.207 468.63 350.117 470.294 350.936C471.763 352.013 473.133 353.315 474.66 354.359C475.414 354.878 476.197 355.403 476.984 355.889C477.701 356.516 478.285 357.233 478.97 357.85C480.308 359.156 481.712 360.366 483.215 361.502C484.351 363.006 485.562 364.409 486.867 365.747C487.484 366.432 488.234 367.049 488.828 367.733C489.347 368.52 489.839 369.303 490.391 370.057C491.402 371.584 492.705 372.954 493.817 374.459C494.633 376.12 495.543 377.689 496.555 379.219C497.765 380.655 498.386 382.418 499.103 384.082C499.788 385.785 500.898 387.279 501.551 388.976C502.301 392.569 504.49 395.633 504.817 399.326C507.356 406.175 507.065 413.71 507.975 421.221C507.065 428.755 507.356 436.264 504.817 443.113C504.49 446.832 502.301 449.896 501.551 453.489C500.898 455.186 499.788 456.687 499.103 458.383C498.386 460.044 497.765 461.81 496.555 463.212C495.543 464.749 494.633 466.345 493.817 468.006C492.705 469.51 491.402 470.848 490.391 472.385C489.839 473.135 489.347 473.912 488.828 474.731C488.234 475.417 487.484 476.033 486.867 476.685C485.562 478.03 484.351 479.433 483.215 480.963C481.712 482.072 480.308 483.277 478.97 484.588C478.285 485.205 477.701 485.959 476.984 486.576C476.197 487.069 475.414 487.555 474.66 488.113C473.133 489.124 471.763 490.426 470.294 491.538C468.63 492.348 467.028 493.268 465.498 494.277C464.062 495.513 462.332 496.107 460.636 496.825C458.965 497.51 457.438 498.613 455.741 499.272C452.181 500.016 449.085 502.206 445.391 502.565C438.542 505.077 431.041 504.819 423.496 505.697C415.962 504.819 408.453 505.077 401.605 502.565C397.921 502.206 394.821 500.016 391.261 499.272ZM260.451 521.461C249.157 528.15 238.582 536.177 229.71 546.227C220.639 556.368 214.047 568.02 210.298 582.087C209.085 586.623 208.467 591.742 208.308 597.423C208.308 602.938 209.019 608.743 209.936 614.975C210.915 621.106 211.992 627.864 213.587 634.295C215.35 640.785 217.079 647.344 218.808 653.743C221.908 667.082 225.759 679.093 226.149 690.445C226.61 701.706 224.13 711.755 215.385 718.807C205.077 727.125 188.302 728.789 171.302 723.14C154.889 717.009 137.889 704.222 130.022 686.112C127.281 680.105 125.228 672.897 124.576 665.62C124.083 658.246 124.677 651.034 126.338 645.321C129.604 651.586 133.905 658.076 140.698 662.514C156.586 673.614 171.755 672.244 180.8 664.184C189.839 656.122 193.356 641.898 186.866 627.045C185.663 624.271 184.227 621.7 182.657 619.249C181.251 616.704 179.622 614.29 177.861 612.067C174.304 607.597 170.091 603.747 165.432 600.523C156.259 593.991 146.112 589.129 135.569 587.533C138.868 577.911 140.564 566.226 139.295 555.063C138.767 549.418 136.946 544.138 135.242 538.65C133.389 533.236 130.681 528.084 126.922 523.255C124.383 519.989 121.509 517.349 118.669 515.196C115.961 513.006 113.058 511.342 110.059 510.232C104.051 508.01 97.7177 507.887 91.9455 509.841C86.1993 511.802 81.0113 515.845 77.3959 521.944C73.6043 528.084 72.074 536.043 73.1866 545.509C74.1623 553.628 76.9032 561.038 80.8547 567.077C71.4898 564.92 60.9471 557.353 53.6054 549.653C49.9801 545.766 46.554 541.525 44.0741 536.921C41.5942 532.293 39.6397 527.432 38.1355 522.505C35.3031 512.579 33.701 502.464 35.3031 492.906C38.0114 473.788 47.1153 458.484 61.7335 452.51C72.2339 448.075 81.765 450.908 91.1628 456.947C100.85 462.988 110.316 472.317 119.489 481.971C129.405 491.538 139.194 501.488 148.882 509.381C159.167 517.15 168.688 523.121 177.276 525.569C206.187 532.845 231.964 525.311 254.835 512.353C277.676 499.364 298.106 481.322 314.903 466.443C319.406 475.348 323.492 484.654 330.141 492.38C308.123 499.924 283.096 508.144 260.451 521.461ZM105.713 421.221C113.058 415.54 120.04 408.848 126.596 401.832C129.898 398.347 132.962 394.722 136.127 391.129C139.553 387.547 142.852 383.954 146.043 380.398C151.724 374.299 156.517 368.586 162.524 363.858C168.431 359.087 174.304 355.011 180.409 351.879C183.473 350.283 186.507 348.913 189.806 347.869C193.164 346.824 196.623 346.042 200.179 345.513C207.257 344.469 214.7 344.505 222.792 345.748C240.836 348.554 256.43 356.483 270.073 365.352C276.863 369.763 283.154 374.459 288.835 379.06C294.941 383.788 300.647 388.49 305.574 392.859C306.618 393.779 307.764 394.497 308.932 395.15C308.123 397.17 308.087 399.385 307.796 401.538C307.496 403.695 307.144 405.849 306.684 408.006C306.325 412.375 306.459 416.809 305.868 421.221C306.459 425.623 306.325 430.09 306.684 434.469C307.144 436.622 307.496 438.736 307.796 440.927C308.087 443.048 308.123 445.302 308.932 447.325C307.764 447.974 306.618 448.692 305.574 449.602C300.647 453.949 294.941 458.642 288.835 463.379C283.154 467.973 276.863 472.675 270.073 477.113C256.43 485.959 240.836 493.885 222.792 496.691C214.833 497.928 207.456 497.96 200.372 496.916C196.815 496.401 193.39 495.614 189.999 494.57C186.674 493.493 183.633 492.123 180.569 490.527C174.402 487.394 168.463 483.31 162.557 478.549C156.517 473.82 151.692 468.14 146.043 462.067C142.852 458.484 139.52 454.892 136.127 451.3C132.962 447.684 129.862 444.092 126.563 440.567C120.008 433.582 113.022 426.892 105.68 421.221H105.713ZM36.1483 326.235C38.1681 316.838 41.3332 307.372 47.1478 299.445C55.077 288.645 69.2351 278.461 80.6197 275.688C76.8347 281.662 74.1296 288.971 73.1866 296.93C72.0413 306.487 73.6043 314.455 77.4285 320.554C81.0472 326.653 86.1993 330.702 91.9815 332.624C97.7177 334.556 104.084 334.422 110.059 332.174C113.058 331.061 115.961 329.433 118.702 327.247C121.509 325.057 124.383 322.45 126.922 319.183C130.681 314.39 133.421 309.202 135.275 303.782C136.971 298.3 138.802 293.014 139.328 287.367C140.597 276.207 138.868 264.561 135.569 254.938C146.112 253.336 156.259 248.442 165.432 241.915C170.091 238.649 174.304 234.832 177.861 230.364C179.622 228.143 181.251 225.728 182.657 223.189C184.227 220.742 185.663 218.194 186.866 215.42C193.39 200.508 189.839 186.285 180.768 178.254C171.729 170.195 156.485 168.893 140.698 179.919C133.78 184.454 129.47 191.111 126.204 197.509C123.371 188.305 123.923 174.864 127.349 165.108C130.615 155.025 135.993 145.66 142.911 138.051C150.095 130.742 158.54 124.904 167.161 121.018C175.639 116.91 185.137 115.797 193.356 116.124C201.709 116.584 209.254 119.132 215.385 123.635C224.323 130.325 226.871 140.273 226.411 151.534C226.052 162.918 222.142 175.024 218.974 188.53C217.245 195.029 215.483 201.621 213.753 208.212C212.093 214.702 211.048 221.492 210.037 227.656C209.12 233.921 208.399 239.726 208.399 245.241C208.532 250.853 209.12 255.95 210.298 260.385C214.047 274.445 220.606 286.097 229.677 296.244C238.556 306.262 249.121 314.289 260.418 320.982C283.096 334.32 308.123 342.514 330.141 350.085C323.492 357.785 319.406 367.114 314.903 375.996C298.106 361.11 277.709 343.098 254.835 330.118C231.99 317.163 206.187 309.62 177.276 316.87C168.496 319.376 158.899 325.347 148.693 333.051C139.001 340.912 129.369 350.77 119.521 360.2C110.45 369.796 101.112 378.995 91.4201 385.067C81.9576 391.064 72.4329 394.005 61.7335 389.929C48.7761 385.158 39.705 371.584 36.0472 354C35.202 349.624 34.5527 345.03 34.5167 340.361C34.6766 335.698 35.202 330.963 36.1483 326.235ZM277.806 150.457C282.378 151.925 287.073 153.194 291.808 154.34C296.503 155.476 301.231 156.52 305.966 157.439L312.984 158.742L320.091 160.406C328.22 162.233 335.754 164.155 342.671 166.446C349.687 169.017 356.245 172.384 362.024 176.101C367.833 179.984 372.926 184.161 377.364 189.808C381.798 195.513 385.515 202.045 388.455 209.707C395.046 226.874 395.957 244.298 395.079 260.385C394.002 276.115 391.587 292.17 388.915 304.827C388.614 306.161 388.556 307.473 388.588 308.843C384.637 310.664 380.428 311.708 376.476 313.471C374.554 314.515 372.594 315.467 370.639 316.377L367.64 317.647L364.899 319.445C361.241 321.824 357.264 323.719 353.965 326.685C352.236 328.029 350.405 329.234 348.61 330.503C347.083 332.072 345.478 333.609 343.85 335.071C342.645 334.32 341.435 333.668 340.097 333.218C333.441 330.804 326.95 328.682 319.935 325.909C312.916 323.168 305.574 319.97 298.233 316.244C283.679 308.81 269.323 299.479 257.608 285.053C247.561 272.523 243.092 259.666 242.014 245.476C241.297 238.232 242.272 231.506 243.509 224.064C244.912 216.823 246.481 208.695 249.323 201.328C252.489 192.416 255.386 182.891 258.068 173.553C260.969 164.514 263.315 155.283 264.66 146.179L264.692 146.212C268.928 147.84 273.238 149.12 277.806 150.457ZM272.981 71.3914C276.08 64.3429 281.399 57.9509 288.118 52.0385C294.908 46.4 302.967 40.784 312.198 38.1051C321.37 35.1715 331.251 33.7038 340.975 34.3529C354.19 35.5992 370.12 43.3001 378.206 51.7118C371.132 51.4186 363.463 52.5639 356.086 55.6312C347.207 59.0535 341.269 65.3185 337.751 71.2577C334.292 77.3657 333.34 83.8236 334.553 89.7945C337.033 101.806 347.508 111.33 363.62 113.226C369.66 114.202 375.533 114.068 381.146 113.093C386.794 112.114 392.171 110.061 397.327 108.129C407.609 103.92 416.873 96.8455 423.496 88.5248C430.156 96.8455 439.394 103.894 449.668 108.129C454.857 110.061 460.244 112.081 465.856 113.06C471.495 114.068 477.342 114.169 483.408 113.226C499.564 111.33 510.005 101.773 512.452 89.7619C513.62 83.7876 512.677 77.3297 509.186 71.2251C505.695 65.286 499.756 59.0535 490.916 55.6312C483.408 52.4987 475.58 51.386 468.395 51.777C474.921 44.7619 486.765 39.156 497.08 36.5423C507.558 33.8375 518.225 34.7121 528.34 36.8004C533.368 37.9456 538.263 39.4166 542.824 41.4691C547.327 43.7178 551.537 46.3315 555.354 49.2058C562.989 54.978 569.095 61.7943 572.912 69.1034C576.597 76.7717 578.133 84.6748 577.223 92.3105C575.878 103.535 568.537 110.577 558.686 115.604C556.173 116.842 553.566 117.922 550.76 118.998C547.921 120.176 544.981 121.253 541.914 122.265C535.783 124.284 529.319 126.046 522.792 127.678C519.526 128.53 516.27 129.215 512.971 130.158L503.054 133.189C496.555 135.186 490.257 137.209 484.42 139.363C472.64 144.026 462.623 149.896 456.192 156.07C451.104 160.931 446.794 166.671 443.237 172.642C439.72 178.613 436.972 184.748 434.858 191.046C430.616 203.641 428.978 216.754 428.85 229.878C428.717 243.028 430.088 256.208 432.019 268.839C433.938 281.594 436.519 293.014 438.708 304.791C436.287 304.142 433.713 304.174 431.132 304.142C428.593 304.04 426.045 303.88 423.496 303.589C420.957 303.88 418.409 304.04 415.864 304.142C413.29 304.174 410.709 304.142 408.294 304.791C410.483 293.014 413.09 281.594 414.986 268.839C416.909 256.208 418.275 243.028 418.152 229.904C418.018 216.754 416.356 203.641 412.111 191.046C410.023 184.781 407.25 178.613 403.725 172.675C400.202 166.671 395.898 160.931 390.805 156.07C384.246 149.739 374.196 143.833 362.484 139.164C356.67 137.04 350.441 135.02 343.983 133.033C337.516 130.977 330.86 129.045 324.47 127.61C311.615 124.51 298.689 120.333 288.868 115.572C278.977 110.577 271.541 103.535 269.78 92.3105C268.735 85.683 269.881 78.5008 272.981 71.3914ZM586.555 320.982C597.838 314.289 608.414 306.262 617.286 296.244C626.357 286.097 632.948 274.445 636.707 260.385C637.912 255.849 638.528 250.696 638.694 245.048C638.694 239.537 637.977 233.723 637.066 227.49C636.08 221.326 635.01 214.601 633.408 208.176C631.679 201.653 629.917 195.121 628.22 188.732C625.088 175.383 621.238 163.379 620.842 151.984C620.392 140.766 622.866 130.709 631.647 123.668C641.928 115.315 658.694 113.677 675.7 119.289C692.107 125.43 709.113 138.254 716.974 156.363C719.715 162.367 721.768 169.543 722.42 176.819C722.913 184.229 722.328 191.437 720.658 197.151C717.398 190.853 713.124 184.385 706.307 179.919C690.41 168.824 675.24 170.195 666.202 178.29C657.163 186.318 653.639 200.577 660.13 215.42C661.34 218.194 662.778 220.742 664.339 223.189C665.741 225.761 667.379 228.175 669.135 230.397C672.692 234.868 676.905 238.682 681.573 241.915C690.736 248.474 700.884 253.336 711.427 254.938C708.128 264.561 706.431 276.239 707.71 287.399C708.23 293.014 710.056 298.333 711.753 303.815C713.617 309.235 716.321 314.39 720.106 319.183C722.619 322.45 725.494 325.09 728.326 327.279C731.041 329.459 733.974 331.097 736.946 332.206C742.944 334.455 749.31 334.556 755.056 332.624C760.829 330.669 765.981 326.594 769.606 320.522C773.391 314.39 774.928 306.429 773.819 296.93C772.84 288.802 770.092 281.427 766.15 275.361C775.512 277.518 786.056 285.085 793.391 292.789C797.016 296.705 800.474 300.907 802.954 305.544C805.402 310.145 807.356 315.007 808.86 319.938C811.699 329.886 813.295 339.965 811.699 349.532C808.994 368.651 799.887 383.99 785.269 389.929C774.762 394.363 765.231 391.557 755.833 385.518C746.142 379.455 736.679 370.148 727.516 360.458C717.591 350.9 707.834 340.977 698.11 333.084C687.838 325.315 678.307 319.318 669.729 316.87C640.815 309.587 615.038 317.128 592.167 330.085C569.32 343.098 548.896 361.143 532.125 375.996C527.622 367.114 523.511 357.785 516.854 350.085C538.882 342.514 563.906 334.32 586.555 320.982ZM539.209 440.927C539.499 438.736 539.858 436.622 540.318 434.469C540.678 430.09 540.543 425.623 541.128 421.221C540.543 416.809 540.678 412.375 540.318 408.006C539.858 405.849 539.499 403.695 539.209 401.538C538.915 399.385 538.882 397.17 538.064 395.15C539.242 394.497 540.409 393.779 541.421 392.859C546.349 388.49 552.061 383.788 558.16 379.06C563.841 374.459 570.139 369.763 576.955 365.352C590.562 356.483 606.159 348.554 624.211 345.748C632.172 344.505 639.54 344.505 646.624 345.549C650.18 346.074 653.607 346.85 656.997 347.894C660.332 348.972 663.363 350.342 666.463 351.912C672.6 355.077 678.533 359.123 684.445 363.883C690.511 368.651 695.34 374.325 700.953 380.398C704.151 383.954 707.475 387.573 710.876 391.165C714.034 394.755 717.141 398.373 720.465 401.865C726.989 408.88 733.974 415.54 741.316 421.221H741.284C733.938 426.925 726.956 433.618 720.433 440.6C717.107 444.124 714.034 447.716 710.876 451.3C707.443 454.892 704.151 458.484 700.953 462.067C695.304 468.173 690.479 473.854 684.471 478.614C678.565 483.378 672.692 487.428 666.597 490.586C663.529 492.156 660.488 493.526 657.199 494.602C653.831 495.647 650.373 496.433 646.823 496.952C639.738 497.996 632.296 497.96 624.211 496.691C606.159 493.885 590.562 485.959 576.955 477.113C570.139 472.675 563.841 467.973 558.16 463.379C552.061 458.642 546.349 453.949 541.421 449.602C540.409 448.692 539.242 447.974 538.064 447.325C538.882 445.302 538.915 443.08 539.209 440.927ZM844.361 469.869C839.533 449.152 828.866 432.573 816.427 421.221H816.496C828.957 409.892 839.567 393.218 844.361 372.468C846.483 362.128 847.36 350.802 846.809 338.824C846.091 326.884 842.958 314.481 838.648 301.824C835.222 291.024 829.192 281.401 823.185 272.555C817.021 263.778 810.263 256.008 802.37 249.943C786.965 237.573 770.843 230.365 755.249 229.578C758.516 222.762 760.796 214.902 761.905 206.248C762.457 201.911 762.725 197.376 762.692 192.706C762.49 188.138 761.938 183.442 761.087 178.649C759.393 169.118 756.46 159.068 752.182 149.247C747.513 139.722 741.541 130.259 734.5 121.446C717.199 100.986 696.642 87.347 676.183 81.376C656.188 74.716 636.215 75.8938 619.968 81.1831L582.31 146.212C583.68 155.319 586.063 164.546 588.934 173.586C591.606 182.95 594.55 192.449 597.682 201.328C600.553 208.764 602.116 216.856 603.552 224.064C604.789 231.474 605.8 238.166 605.115 245.375C604.071 259.5 599.601 272.331 589.394 285.053C577.673 299.479 563.322 308.81 548.763 316.244C541.421 319.97 534.086 323.168 527.07 325.909C520.052 328.682 513.555 330.804 506.905 333.218C505.56 333.668 504.357 334.32 503.179 335.071C501.518 333.609 499.922 332.072 498.386 330.503C496.587 329.234 494.76 328.029 493.03 326.685C489.738 323.719 485.787 321.824 482.103 319.445L479.365 317.647L476.357 316.377C474.403 315.467 472.448 314.515 470.519 313.471C466.568 311.708 462.365 310.664 458.414 308.843C458.446 307.473 458.381 306.161 458.087 304.827C455.415 292.17 452.994 276.115 451.924 260.385C451.039 244.298 451.95 226.874 458.547 209.707C461.448 202.172 465.139 195.682 469.573 190.001C474.011 184.385 479.098 180.144 484.945 176.268C490.75 172.475 497.309 169.086 504.357 166.479C511.307 164.155 518.841 162.201 526.904 160.406L534.053 158.742L541.062 157.407C545.796 156.487 550.525 155.476 555.262 154.34C559.959 153.162 564.66 151.893 569.254 150.457C573.79 149.12 578.1 147.84 582.342 146.179L620 81.1146C616.927 63.6253 607.044 47.3105 591.642 32.2646C575.852 18.2987 554.016 6.16138 527.488 2.05156C521.883 1.04081 516.303 0.389218 510.781 0.0300265C505.267 -0.103626 499.788 0.222191 494.434 0.748448C483.767 1.89285 473.652 4.00621 464.512 7.30576C446.21 14.716 431.95 25.5752 423.496 37.913C415.052 25.5752 400.818 14.7485 382.516 7.33915C373.376 4.03961 363.261 1.91789 352.594 0.781843C347.24 0.255586 341.762 -0.070213 336.214 0.0300265C330.699 0.389218 325.12 1.04081 319.54 2.05156C292.82 6.16138 271.016 18.3313 255.262 32.3005C239.926 47.4116 230.101 63.6904 227.037 81.1831L227.005 81.1146C210.749 75.7927 190.749 74.6834 170.718 81.4412C150.252 87.4481 129.728 101.147 112.538 121.446C105.422 130.259 99.4835 139.689 94.8207 149.211C90.5422 159.068 87.6027 169.086 85.9094 178.649C85.0641 183.442 84.5061 188.112 84.3131 192.674C84.2772 197.343 84.5387 201.879 85.0967 206.222C86.2319 214.902 88.4898 222.762 91.7793 229.578C76.1853 230.365 60.0629 237.573 44.668 249.943C36.765 256.008 30.0171 263.778 23.8435 272.555C17.8461 281.369 11.8062 291.024 8.34748 301.824C4.00442 314.547 0.845831 327.011 0.160602 338.957C-0.397372 350.936 0.513006 362.288 2.66659 372.596C7.46973 393.286 18.1365 409.892 30.6011 421.221H30.5C18.0386 432.573 7.4371 449.244 2.66659 469.97C0.513006 480.311 -0.364743 491.663 0.186706 503.642C0.904563 515.554 4.03705 527.983 8.34748 540.614C11.7737 551.415 17.8102 561.07 23.8174 569.883C29.9812 578.687 36.7324 586.423 44.6353 592.496C60.0367 604.893 76.1853 612.067 91.7467 612.854C88.4898 619.677 86.2319 627.57 85.0967 636.217C84.5387 640.56 84.2772 645.063 84.3131 649.759C84.5061 654.326 85.0641 658.996 85.9094 663.789C87.6027 673.347 90.5422 683.371 94.8207 693.219C99.4835 702.75 105.454 712.18 112.505 721.019C129.797 741.452 150.353 755.091 170.809 761.056C190.818 767.749 210.814 766.577 227.037 761.255L264.692 696.227C263.315 687.12 260.933 677.883 258.068 668.876C255.386 659.515 252.456 650.016 249.323 641.144C246.449 633.701 244.879 625.583 243.45 618.398C242.207 610.997 241.195 604.308 241.88 597.091C242.925 582.965 247.395 570.109 257.608 557.412C269.323 542.96 283.679 533.664 298.233 526.221C305.574 522.469 312.916 519.271 319.935 516.53C326.95 513.757 333.441 511.668 340.097 509.253C341.402 508.761 342.645 508.111 343.85 507.394C345.478 508.862 347.083 510.366 348.61 511.93C350.405 513.205 352.236 514.441 353.965 515.78C357.264 518.753 361.241 520.641 364.899 522.988L367.64 524.782L370.639 526.088C372.594 526.971 374.554 527.95 376.476 528.959C380.428 530.725 384.637 531.801 388.588 533.628C388.556 534.966 388.614 536.304 388.915 537.606C391.587 550.27 394.002 566.36 395.079 582.055C395.957 598.167 395.046 615.591 388.455 632.726C385.548 640.293 381.863 646.76 377.429 652.431C372.985 658.076 367.898 662.289 362.06 666.204C356.245 669.956 349.687 673.379 342.645 675.997C335.695 678.31 328.155 680.238 320.091 682.059L312.949 683.697L305.933 685.032C301.205 685.945 296.471 686.99 291.743 688.131C287.037 689.277 282.345 690.546 277.741 692.017C273.205 693.352 268.895 694.622 264.66 696.26L227.005 761.324C230.069 778.84 239.959 795.155 255.353 810.2C271.15 824.166 292.976 836.304 319.508 840.413C325.12 841.398 330.699 842.083 336.214 842.442C341.729 842.569 347.24 842.207 352.562 841.692C363.261 840.546 373.376 838.458 382.484 835.133C400.786 827.723 415.052 816.89 423.496 804.552C431.95 816.89 446.178 827.723 464.48 835.1C473.616 838.425 483.735 840.546 494.408 841.656C499.756 842.207 505.267 842.534 510.781 842.41C516.303 842.051 521.883 841.398 527.462 840.413C554.186 836.304 576.012 824.133 591.74 810.132C607.08 795.063 616.901 778.748 619.968 761.255L620 761.324C636.248 766.669 656.246 767.749 676.284 760.998C696.776 754.99 717.268 741.318 734.467 721.019C741.541 712.18 747.513 702.75 752.182 693.254C756.46 683.397 759.393 673.379 761.123 663.825C761.938 659.029 762.49 654.326 762.692 649.791C762.725 645.096 762.457 640.56 761.905 636.25C760.76 627.57 758.516 619.71 755.249 612.887C770.811 612.101 786.933 604.893 802.338 592.529C810.231 586.423 816.989 578.687 823.152 569.883C829.159 561.07 835.222 551.415 838.648 540.614C842.991 527.915 846.157 515.453 846.842 503.508C847.394 491.502 846.483 480.177 844.361 469.869Z" fill="#F4F7C9"/>
</svg>
